<mxfile host="app.diagrams.net" modified="2024-01-29T16:25:33.783Z" agent="Mozilla/5.0 (Windows NT 10.0; Win64; x64) AppleWebKit/537.36 (KHTML, like Gecko) Chrome/120.0.0.0 Safari/537.36" etag="qdX9lenQ_GBphZQkfFnx" version="23.0.1" type="device">
  <diagram name="Page-1" id="HmipwPDJHIC5jnWK7yoO">
    <mxGraphModel dx="794" dy="446" grid="1" gridSize="10" guides="1" tooltips="1" connect="1" arrows="1" fold="1" page="1" pageScale="1" pageWidth="850" pageHeight="1100" math="0" shadow="0">
      <root>
        <mxCell id="0" />
        <mxCell id="1" parent="0" />
        <mxCell id="6Tjdk4gjT4K17GXfc2NK-2" value="" style="shape=actor;whiteSpace=wrap;html=1;" vertex="1" parent="1">
          <mxGeometry x="70" y="130" width="70" height="100" as="geometry" />
        </mxCell>
        <mxCell id="6Tjdk4gjT4K17GXfc2NK-3" value="" style="sketch=0;outlineConnect=0;fontColor=#232F3E;gradientColor=none;fillColor=#232F3D;strokeColor=none;dashed=0;verticalLabelPosition=bottom;verticalAlign=top;align=center;html=1;fontSize=12;fontStyle=0;aspect=fixed;pointerEvents=1;shape=mxgraph.aws4.traditional_server;" vertex="1" parent="1">
          <mxGeometry x="610" y="100" width="85" height="147.33" as="geometry" />
        </mxCell>
        <mxCell id="6Tjdk4gjT4K17GXfc2NK-4" value="" style="image;points=[];aspect=fixed;html=1;align=center;shadow=0;dashed=0;image=img/lib/allied_telesis/computer_and_terminals/Personal_Computer.svg;" vertex="1" parent="1">
          <mxGeometry x="300" y="91.45" width="131.75" height="178.55" as="geometry" />
        </mxCell>
        <mxCell id="6Tjdk4gjT4K17GXfc2NK-17" value="Interacting with UI" style="text;html=1;align=center;verticalAlign=middle;resizable=0;points=[];autosize=1;strokeColor=none;fillColor=none;" vertex="1" parent="1">
          <mxGeometry x="170" y="158.66" width="120" height="30" as="geometry" />
        </mxCell>
        <mxCell id="6Tjdk4gjT4K17GXfc2NK-23" value="" style="endArrow=classic;html=1;rounded=0;" edge="1" parent="1">
          <mxGeometry width="50" height="50" relative="1" as="geometry">
            <mxPoint x="440" y="170" as="sourcePoint" />
            <mxPoint x="600" y="170" as="targetPoint" />
          </mxGeometry>
        </mxCell>
        <mxCell id="6Tjdk4gjT4K17GXfc2NK-24" value="Request" style="text;html=1;align=center;verticalAlign=middle;resizable=0;points=[];autosize=1;strokeColor=none;fillColor=none;" vertex="1" parent="1">
          <mxGeometry x="480" y="140" width="70" height="30" as="geometry" />
        </mxCell>
        <mxCell id="6Tjdk4gjT4K17GXfc2NK-25" value="" style="endArrow=classic;html=1;rounded=0;entryX=1.017;entryY=0.563;entryDx=0;entryDy=0;entryPerimeter=0;" edge="1" parent="1" target="6Tjdk4gjT4K17GXfc2NK-4">
          <mxGeometry relative="1" as="geometry">
            <mxPoint x="600" y="192" as="sourcePoint" />
            <mxPoint x="560" y="210" as="targetPoint" />
          </mxGeometry>
        </mxCell>
        <mxCell id="6Tjdk4gjT4K17GXfc2NK-27" value="Response" style="text;html=1;align=center;verticalAlign=middle;resizable=0;points=[];autosize=1;strokeColor=none;fillColor=none;" vertex="1" parent="1">
          <mxGeometry x="480" y="190" width="80" height="30" as="geometry" />
        </mxCell>
        <mxCell id="6Tjdk4gjT4K17GXfc2NK-28" value="" style="endArrow=classic;startArrow=classic;html=1;rounded=0;entryX=0.015;entryY=0.541;entryDx=0;entryDy=0;entryPerimeter=0;" edge="1" parent="1" target="6Tjdk4gjT4K17GXfc2NK-4">
          <mxGeometry width="50" height="50" relative="1" as="geometry">
            <mxPoint x="150" y="190" as="sourcePoint" />
            <mxPoint x="280" y="190" as="targetPoint" />
          </mxGeometry>
        </mxCell>
        <mxCell id="6Tjdk4gjT4K17GXfc2NK-29" value="&lt;b&gt;&lt;font style=&quot;font-size: 18px;&quot;&gt;User&lt;/font&gt;&lt;/b&gt;" style="text;html=1;strokeColor=none;fillColor=none;align=center;verticalAlign=middle;whiteSpace=wrap;rounded=0;" vertex="1" parent="1">
          <mxGeometry x="70" y="247.32999999999998" width="60" height="30" as="geometry" />
        </mxCell>
        <mxCell id="6Tjdk4gjT4K17GXfc2NK-30" value="&lt;b&gt;&lt;font style=&quot;font-size: 18px;&quot;&gt;UI/Client&lt;/font&gt;&lt;/b&gt;" style="text;html=1;align=center;verticalAlign=middle;resizable=0;points=[];autosize=1;strokeColor=none;fillColor=none;" vertex="1" parent="1">
          <mxGeometry x="320" y="272.33" width="100" height="40" as="geometry" />
        </mxCell>
        <mxCell id="6Tjdk4gjT4K17GXfc2NK-31" value="&lt;b&gt;&lt;font style=&quot;font-size: 18px;&quot;&gt;Server&lt;/font&gt;&lt;/b&gt;" style="text;html=1;align=center;verticalAlign=middle;resizable=0;points=[];autosize=1;strokeColor=none;fillColor=none;" vertex="1" parent="1">
          <mxGeometry x="615" y="247.33" width="80" height="40" as="geometry" />
        </mxCell>
      </root>
    </mxGraphModel>
  </diagram>
</mxfile>
